<?xml version="1.0" encoding="utf-8"?>
<!-- Generator: Adobe Illustrator 22.1.0, SVG Export Plug-In . SVG Version: 6.00 Build 0)  -->
<svg version="1.1" id="Layer_1" xmlns="http://www.w3.org/2000/svg" xmlns:xlink="http://www.w3.org/1999/xlink" x="0px" y="0px"
	 viewBox="0 0 500 500" style="enable-background:new 0 0 500 500;" xml:space="preserve">
<style type="text/css">
	.st0{fill:none;stroke:#C8C8C8;stroke-width:10;stroke-linecap:round;stroke-linejoin:round;stroke-miterlimit:10;}
	.st1{fill:#44CCC0;fill-opacity:0;}
	.st2{fill:none;stroke:#44CCC0;stroke-width:10;stroke-linecap:round;stroke-linejoin:round;stroke-miterlimit:10;}
	.st3{fill:none;stroke:#231F20;stroke-miterlimit:10;stroke-opacity:0;}
	.st4{fill:#10827B;}
	.st5{fill:#0F9190;}
	.st6{fill:#44CCC0;}
	.st7{opacity:0.25;fill:#231F20;enable-background:new    ;}
	.st8{fill:#FFFFFF;}
	.st9{fill:#C6FBFA;}
	.st10{opacity:0.25;}
	.st11{fill:none;stroke:#231F20;stroke-width:10;stroke-linejoin:round;stroke-miterlimit:10;}
	.st12{fill:none;stroke:#FFFFFF;stroke-width:10;stroke-linecap:round;stroke-linejoin:round;stroke-miterlimit:10;}
	.st13{fill:none;stroke:#FFFFFF;stroke-width:10;stroke-linejoin:round;stroke-miterlimit:10;}
	.st14{opacity:0.25;fill:#44CCC0;enable-background:new    ;}
	.st15{fill:none;stroke:#FF0000;stroke-width:10;stroke-miterlimit:10;stroke-opacity:0;}
	.st16{opacity:0.25;enable-background:new    ;}
	.st17{fill:none;stroke:#231F20;stroke-width:3;stroke-miterlimit:10;}
	.st18{fill:none;stroke:#FF0000;stroke-width:10;stroke-miterlimit:10;}
	.st19{display:none;}
	.st20{display:inline;fill:#3A3A3A;}
	.st21{display:inline;}
</style>
<symbol  id="League_x5F_Platinum" viewBox="-250.5 -250.5 501 501">
	<g>
		<path class="st0" d="M141.8,99.1c5.5,0,10,4.5,10,10v22.8c0,5.5-4.5,10-10,10h-283.2c-5.5,0-10-4.5-10-10v-22.8
			c0-5.5,4.5-10,10-10H141.8z"/>
	</g>
	<polygon class="st1" points="173.2,-100.8 0,-200.8 -173.2,-100.8 -173.2,99.2 0,199.2 173.2,99.2 	"/>
	<g>
		<polyline class="st2" points="173.2,59.2 173.2,-100.8 0,-200.8 -173.2,-100.8 -173.2,59.2 		"/>
		<line class="st2" x1="-173.2" y1="59.2" x2="-124.4" y2="59.2"/>
		<line class="st2" x1="124.4" y1="59.2" x2="173.2" y2="59.2"/>
	</g>
	<line class="st0" x1="-92.7" y1="-174.3" x2="-46.3" y2="-204.3"/>
	<line class="st0" x1="44.8" y1="-204.3" x2="89.6" y2="-174.3"/>
	<polygon class="st3" points="250,-250 -250,-250 -250,250 250,250 	"/>
	<polygon class="st4" points="-135,-202.9 0,-169.4 135,-202.9 135,107.7 -135,107.7 	"/>
	<polyline class="st5" points="122.5,107.7 122.5,70.2 -122.5,70.2 -122.5,108.8 	"/>
	<polygon class="st6" points="135,-202.9 135,-187.7 0,-157.7 -135.1,-187.7 -135.1,-202.9 0,-172.9 	"/>
	<polygon class="st6" points="135,-172.5 135,-157.3 0,-127.3 -135.1,-157.3 -135.1,-172.5 0,-142.5 	"/>
	<polygon class="st6" points="-122.5,-130 0,-200.8 122.5,-130 122.5,70.2 -122.5,70.2 	"/>
	<polygon class="st7" points="-122.5,39.6 -135,39.6 -135,50.3 -122.5,50.3 	"/>
	<polygon class="st7" points="135,39.6 122.5,39.6 122.5,50.3 135,50.3 	"/>
	<g>
		<polygon class="st6" points="-10.5,85.3 0,91.4 10.5,85.3 10.5,-194.7 0,-200.8 -10.5,-194.7 		"/>
		<polygon class="st6" points="40.5,85.3 50.9,91.4 61.4,85.3 61.4,-165.3 50.9,-171.4 40.5,-177.4 		"/>
		<polygon class="st6" points="90.5,70.2 100.9,76.3 111.4,70.2 111.4,-136.9 100.9,-142.9 90.5,-149 		"/>
		<polygon class="st6" points="-61.4,85.3 -50.9,91.4 -40.5,85.3 -40.5,-177.4 -50.9,-171.4 -61.4,-165.3 		"/>
		<polygon class="st6" points="-111.4,70.2 -100.9,76.3 -90.5,70.2 -90.5,-149 -100.9,-142.9 -111.4,-136.9 		"/>
	</g>
	<path class="st7" d="M-122.5-150l60.1-34.7l24.9,5.5l-85,49.1L-122.5-150L-122.5-150z M37.5-179.1l24.9-5.5l60.1,34.7v19.9
		L37.5-179.1z"/>
	<g>
		<g>
			<path class="st0" d="M-46.3-204.3c0,0,0,17,0,43"/>
		</g>
		<g>
			<path class="st0" d="M44.8-159.8c0-26.9,0-44.5,0-44.5"/>
		</g>
	</g>
	<polygon class="st7" points="-79,-189 -65.8,-185.7 -59.5,-190 -70.5,-194.4 	"/>
	<polygon class="st7" points="77.3,-188.5 64.1,-185.3 57.8,-189.6 68.8,-194 	"/>
	<polyline class="st0" points="43.3,-158.8 -0.9,-133.3 -45.1,-158.8 	"/>
	<polygon class="st8" points="124.4,-129 0,-200.8 -124.4,-129 0,-204.9 	"/>
	<g>
		<polygon class="st9" points="124.4,-132.1 124.4,-98.1 0,-26.3 -124.4,-98.1 -124.4,-132.1 0,-60.3 		"/>
		<polygon class="st7" points="-124.4,-132.1 0,-60.3 124.4,-132.1 0,-68.5 		"/>
		<polygon class="st8" points="-124.4,-132.1 0,-60.3 124.4,-132.1 0,-56.2 		"/>
	</g>
	<g>
		<polygon class="st9" points="124.4,-65.3 124.4,-31.3 0,40.5 -124.4,-31.3 -124.4,-65.3 0,6.6 		"/>
		<polygon class="st7" points="-124.4,-65.3 0,6.6 124.4,-65.3 0,-1.7 		"/>
		<polygon class="st8" points="-124.4,-65.3 0,6.6 124.4,-65.3 0,10.7 		"/>
	</g>
	<g>
		<polyline class="st6" points="-114,-49.3 -114,-15.3 -122.5,-20.2 -122.5,-54.5 		"/>
		<polyline class="st6" points="122.5,-53.9 122.5,-20.2 113.5,-15 113.5,-49 		"/>
		<polyline class="st6" points="-114,-115.9 -114,-81.9 -122.5,-86.9 -122.5,-121.2 		"/>
		<polyline class="st6" points="-74,-24.3 -74,9.7 -82.5,4.8 -82.5,-29.5 		"/>
		<polyline class="st6" points="-74,-90.9 -74,-57 -82.5,-61.9 -82.5,-96.2 		"/>
		<polyline class="st6" points="122.5,-120.5 122.5,-86.9 113.5,-81.7 113.5,-115.7 		"/>
		<polyline class="st6" points="82.5,-28.9 82.5,4.8 73.5,10 73.5,-24 		"/>
		<polyline class="st6" points="82.5,-95.5 82.5,-61.9 73.5,-56.7 73.5,-90.7 		"/>
	</g>
	<g>
		<g class="st10">
			<path class="st11" d="M74.4,56.2c0,0,2.8,0,6.3,0s6.3,4.5,6.3,10v22.8c0,5.5-4.5,10-10,10H-76.6c-5.5,0-10-4.5-10-10V66.2
				c0-5.5,2.8-10,6.2-10s6.2,0,6.2,0"/>
		</g>
		<g>
			<g class="st10">
				<line class="st11" x1="44.5" y1="141.9" x2="-44.8" y2="141.9"/>
			</g>
			<line class="st12" x1="0" y1="158.5" x2="0" y2="119.1"/>
		</g>
		<g>
			<path class="st13" d="M74.4,76.2c0,0,2.8,0,6.3,0s6.3,4.5,6.3,10V109c0,5.5-4.5,10-10,10H-76.6c-5.5,0-10-4.5-10-10V86.2
				c0-5.5,2.8-10,6.2-10s6.2,0,6.2,0"/>
		</g>
		<g>
			<line class="st12" x1="-51.4" y1="164.7" x2="-91.4" y2="164.7"/>
		</g>
		<g>
			<line class="st12" x1="91.8" y1="164.7" x2="51.8" y2="164.7"/>
		</g>
		<g>
			<polygon class="st12" points="0,241.7 13.5,200.1 57.3,200.1 21.9,174.4 35.4,132.7 0,158.5 -35.4,132.7 -21.9,174.4 
				-57.3,200.1 -13.5,200.1 			"/>
		</g>
	</g>
	<path class="st14" d="M-106,68.3v39.4h-16.5V68.2 M122.5,68.2v39.5H106V67.9"/>
</symbol>
<symbol  id="Position_x5F_2" viewBox="-250.5 -250.5 501 501">
	<polygon class="st3" points="250,-250 -250,-250 -250,250 250,250 	"/>
	<polygon class="st15" points="-173.2,99.2 0,199.2 173.2,99.2 173.2,-100.8 0,-200.8 -173.2,-100.8 	"/>
	<polygon class="st16" points="67.5,-131.7 67.5,36.4 0,36.4 -67.5,36.4 -67.5,-131.7 0,-170.6 	"/>
	<g>
		<polygon points="73.6,-109.8 73.6,107.8 0,107.8 -73.6,107.8 -73.6,-109.8 0,-152.3 		"/>
		<g>
			<path class="st8" d="M-32.2-46.3v93.9h17.7v-93.9H-32.2z"/>
			<path class="st8" d="M14.5-46.3v93.9h17.7v-93.9H14.5z"/>
		</g>
	</g>
	<polygon class="st8" points="-73.6,-89.8 0,-132.3 73.6,-89.8 73.6,-99.8 0,-142.3 -73.6,-99.8 	"/>
	<polygon class="st8" points="-73.6,-69.8 0,-112.3 73.6,-69.8 73.6,-79.8 0,-122.3 -73.6,-79.8 	"/>
</symbol>
<symbol  id="base" viewBox="-251.5 -251.5 503 503">
	<polygon class="st17" points="250,-250 -250,-250 -250,250 250,250 	"/>
	<line class="st17" x1="-250" y1="250" x2="250" y2="-250"/>
	<line class="st17" x1="250" y1="250" x2="-250" y2="-250"/>
	<polygon class="st18" points="-173.2,99.2 0,199.2 173.2,99.2 173.2,-100.8 0,-200.8 -173.2,-100.8 	"/>
</symbol>
<g id="Layer_1_1_" class="st19">
</g>
<g id="_x5B_HBE_x5D__-_Bg" class="st19">
	<rect x="-1381.7" y="-2800.6" class="st20" width="2615.5" height="4079.2"/>
</g>
<g id="_x5B_HBE_x5D__-_Struct" class="st19">
	<g id="League_x5F_Bronze" class="st21">
	</g>
	
		<use xlink:href="#base"  width="503" height="503" id="XMLID_19_" x="-251.5" y="-251.5" transform="matrix(1 0 0 -1 256.5 252.194)" style="display:inline;overflow:visible;"/>
</g>
<g id="Bases">
	<g id="League_x5F_Diamond_x5F_Small">
		<g id="League_x5F_Diamond">
		</g>
	</g>
</g>
<g id="Compound">
	<g id="Rank_x5F_Copper_x5F_4_x5F_Small_1_">
		<g id="Rank_x5F_Copper_x5F_4_2_">
		</g>
	</g>
	<g id="Rank_x5F_Copper_x5F_4_x5F_Small_2_">
		<g id="Rank_x5F_Copper_x5F_4_3_">
		</g>
	</g>
	<g id="Rank_x5F_Copper_x5F_4_5_">
		<g id="League_x5F_Copper">
		</g>
	</g>
	<g id="Rank_x5F_Copper_x5F_4_x5F_Small_4_">
		<g id="Rank_x5F_Copper_x5F_4_6_">
		</g>
	</g>
	<g id="Rank_x5F_Copper_x5F_4_x5F_Small_3_">
		<g id="Rank_x5F_Copper_x5F_4_4_">
		</g>
	</g>
	<g id="Rank_x5F_Copper_x5F_4_x5F_Small">
		<g id="Rank_x5F_Copper_x5F_4">
		</g>
	</g>
	<g id="Position_x5F_1_x5F_Small">
		<g id="Position_x5F_1_1_">
		</g>
	</g>
	<g id="Rank_x5F_Copper_x5F_3">
	</g>
	<g id="Rank_x5F_Copper_x5F_2">
	</g>
	<g id="Rank_x5F_Copper_x5F_1">
	</g>
	<g id="Rank_x5F_Bronze_x5F_4">
	</g>
	<g id="Rank_x5F_Bronze_x5F_3">
	</g>
	<g id="Rank_x5F_Bronze_x5F_2">
	</g>
	<g id="Rank_x5F_Bronze_x5F_1">
	</g>
	<g id="Rank_x5F_Silver_x5F_4">
	</g>
	<g id="Rank_x5F_Silver_x5F_3">
	</g>
	<g id="Rank_x5F_Silver_x5F_2">
	</g>
	<g id="Rank_x5F_Silver_x5F_1">
	</g>
	<g id="Rank_x5F_Gold_x5F_4">
	</g>
	<g id="Rank_x5F_Gold_x5F_3">
	</g>
	<g id="Rank_x5F_Gold_x5F_2">
	</g>
	<g id="Rank_x5F_Gold_x5F_1">
	</g>
	<g id="Rank_x5F_Platinum_x5F_4">
	</g>
	<g id="Rank_x5F_Platinum_x5F_3">
		
			<use xlink:href="#League_x5F_Platinum"  width="501" height="501" id="XMLID_51_" x="-250.5" y="-250.5" transform="matrix(1 0 0 -1 256.5 252.193)" style="overflow:visible;"/>
		
			<use xlink:href="#Position_x5F_2"  width="501" height="501" x="-250.5" y="-250.5" transform="matrix(1 0 0 -1 256.5 252.1924)" style="overflow:visible;"/>
	</g>
	<g id="Rank_x5F_Platinum_x5F_2">
	</g>
	<g id="Rank_x5F_Platinum_x5F_1">
		<g id="Position_x5F_1">
		</g>
	</g>
</g>
</svg>
