<?xml version="1.0" encoding="utf-8"?>
<!-- Generator: Adobe Illustrator 22.1.0, SVG Export Plug-In . SVG Version: 6.00 Build 0)  -->
<svg version="1.1" id="Layer_1" xmlns="http://www.w3.org/2000/svg" xmlns:xlink="http://www.w3.org/1999/xlink" x="0px" y="0px"
	 viewBox="0 0 500 500" style="enable-background:new 0 0 500 500;" xml:space="preserve">
<style type="text/css">
	.st0{fill:none;stroke:#C8C8C8;stroke-width:10;stroke-linecap:round;stroke-linejoin:round;stroke-miterlimit:10;}
	.st1{fill:none;stroke:#E4CFFF;stroke-width:10;stroke-linecap:round;stroke-linejoin:round;stroke-miterlimit:10;}
	.st2{fill:none;stroke:#231F20;stroke-miterlimit:10;stroke-opacity:0;}
	.st3{fill:#9A7CF4;}
	.st4{fill:#E4CFFF;}
	.st5{opacity:0.25;fill:#231F20;enable-background:new    ;}
	.st6{opacity:0.25;}
	.st7{fill:none;stroke:#231F20;stroke-width:10;stroke-linejoin:round;stroke-miterlimit:10;}
	.st8{fill:none;stroke:#FFFFFF;stroke-width:10;stroke-linecap:round;stroke-linejoin:round;stroke-miterlimit:10;}
	.st9{fill:none;stroke:#FFFFFF;stroke-width:10;stroke-linejoin:round;stroke-miterlimit:10;}
	.st10{opacity:0.25;fill:#E4CFFF;enable-background:new    ;}
	.st11{fill:#FFFFFF;}
	.st12{fill:none;stroke:#231F20;stroke-width:3;stroke-miterlimit:10;}
	.st13{fill:none;stroke:#FF0000;stroke-width:10;stroke-miterlimit:10;}
	.st14{display:none;}
	.st15{display:inline;fill:#3A3A3A;}
	.st16{display:inline;}
	.st17{opacity:0;}
	.st18{fill:none;stroke:#FF0000;stroke-width:0.25;stroke-miterlimit:10;}
	.st19{opacity:0.25;enable-background:new    ;}
</style>
<symbol  id="League_x5F_Diamond_1_" viewBox="-250.5 -250.5 501 501">
	<g>
		<path class="st0" d="M141.8,99.2c5.5,0,10,4.5,10,10V132c0,5.5-4.5,10-10,10h-283.2c-5.5,0-10-4.5-10-10v-22.8c0-5.5,4.5-10,10-10
			H141.8z"/>
	</g>
	<g>
		<polyline class="st1" points="173.2,59.2 173.2,-100.8 0,-200.8 -173.2,-100.8 -173.2,59.2 		"/>
		<line class="st1" x1="-173.2" y1="59.2" x2="-124.4" y2="59.2"/>
		<line class="st1" x1="124.4" y1="59.2" x2="173.2" y2="59.2"/>
	</g>
	<g>
		<line class="st0" x1="-92.7" y1="-174.3" x2="-46.3" y2="-204.3"/>
		<line class="st0" x1="44.8" y1="-204.3" x2="89.6" y2="-174.3"/>
		<g>
			<g>
				<path class="st0" d="M-46.3-204.3"/>
			</g>
			<g>
				<path class="st0" d="M44.8-204.3"/>
			</g>
		</g>
	</g>
	<polygon class="st2" points="250,-250 -250,-250 -250,250 250,250 	"/>
	<polygon class="st3" points="-135,-202.9 0,-169.4 135,-202.9 135,107.7 -135,107.7 	"/>
	<polyline class="st3" points="122.5,107.7 122.5,70.2 -122.5,70.2 -122.5,108.8 	"/>
	<polygon class="st4" points="-122.5,-130 0,-200.8 122.5,-130 122.5,70.2 -122.5,70.2 	"/>
	<polygon class="st5" points="-122.5,39.6 -135,39.6 -135,50.3 -122.5,50.3 	"/>
	<polygon class="st5" points="135,39.6 122.5,39.6 122.5,50.3 135,50.3 	"/>
	<path class="st5" d="M-122.5-150l60.1-34.7l24.9,5.5l-85,49.1V-150z M37.5-179.1l24.9-5.5l60.1,34.7v19.9L37.5-179.1z"/>
	<polygon class="st5" points="-79,-189 -65.8,-185.7 -59.5,-190 -70.5,-194.4 	"/>
	<polygon class="st5" points="77.3,-188.5 64.1,-185.3 57.8,-189.6 68.8,-194 	"/>
	<g>
		<polygon class="st4" points="-10.5,85.3 0,91.4 10.5,85.3 10.5,-194.7 0,-200.8 -10.5,-194.7 		"/>
		<polygon class="st4" points="40.5,85.3 50.9,91.4 61.4,85.3 61.4,-165.3 50.9,-171.4 40.5,-177.4 		"/>
		<polygon class="st4" points="90.5,70.2 100.9,76.3 111.4,70.2 111.4,-136.9 100.9,-142.9 90.5,-149 		"/>
		<polygon class="st4" points="-61.4,85.3 -50.9,91.4 -40.5,85.3 -40.5,-177.4 -50.9,-171.4 -61.4,-165.3 		"/>
		<polygon class="st4" points="-111.4,70.2 -100.9,76.3 -90.5,70.2 -90.5,-149 -100.9,-142.9 -111.4,-136.9 		"/>
	</g>
	<g>
		<g class="st6">
			<path class="st7" d="M74.3,56.4c0,0,2.8,0,6.3,0s6.3,4.5,6.3,10v22.8c0,5.5-4.5,10-10,10H-76.6c-5.5,0-10-4.5-10-10V66.4
				c0-5.5,2.8-10,6.2-10s6.2,0,6.2,0"/>
		</g>
		<g>
			<g class="st6">
				<line class="st7" x1="44.5" y1="142" x2="-44.8" y2="142"/>
			</g>
			<line class="st8" x1="0" y1="142" x2="0" y2="119.2"/>
		</g>
		<g>
			<path class="st9" d="M74.3,76.4c0,0,2.8,0,6.3,0s6.3,4.5,6.3,10v22.8c0,5.5-4.5,10-10,10H-76.6c-5.5,0-10-4.5-10-10V86.4
				c0-5.5,2.8-10,6.2-10s6.2,0,6.2,0"/>
		</g>
		<g>
			<polyline class="st8" points="-0.9,221.4 -29.7,221.4 -52.6,191.1 -1.7,142 			"/>
			<line class="st8" x1="-52.6" y1="191.1" x2="50.7" y2="191.1"/>
			<line class="st8" x1="-1.7" y1="142" x2="-21.5" y2="191.1"/>
			<line class="st8" x1="-21.5" y1="191.1" x2="-9" y2="221.4"/>
			<polyline class="st8" points="-0.9,221.4 27.8,221.4 50.7,191.1 -0.2,142 			"/>
			<line class="st8" x1="-0.2" y1="142" x2="19.6" y2="191.1"/>
			<line class="st8" x1="19.6" y1="191.1" x2="7.1" y2="221.4"/>
		</g>
	</g>
	<path class="st10" d="M-106,68.3v39.4h-16.5V68.2 M122.5,68.2v39.5H106V67.9"/>
	<g>
		<polygon class="st3" points="124.4,-152.1 124.4,-118.1 0,-46.3 -124.4,-118.1 -124.4,-152.1 0,-80.3 		"/>
		<polygon class="st5" points="-124.4,-152.1 0,-80.3 124.4,-152.1 0,-88.5 		"/>
		<polygon class="st11" points="-124.4,-152.1 0,-80.3 124.4,-152.1 0,-76.2 		"/>
	</g>
	<g>
		<polygon class="st3" points="124.4,-85.3 124.4,-51.3 0,20.6 -124.4,-51.3 -124.4,-85.3 0,-13.4 		"/>
		<polygon class="st5" points="-124.4,-85.3 0,-13.4 124.4,-85.3 0,-21.7 		"/>
		<polygon class="st11" points="-124.4,-85.3 0,-13.4 124.4,-85.3 0,-9.3 		"/>
	</g>
	<g>
		<polygon class="st3" points="124.4,-19.3 124.4,14.6 0,86.5 -124.4,14.6 -124.4,-19.3 0,52.5 		"/>
		<polygon class="st5" points="-124.4,-19.3 0,52.5 124.4,-19.3 0,44.2 		"/>
		<polygon class="st11" points="-124.4,-19.3 0,52.5 124.4,-19.3 0,56.6 		"/>
	</g>
	<g>
		<path class="st0" d="M44.8-204.3c0,0,0,6.4,0,14.2s-0.3,14.2-0.8,14.2s-10.7,5.7-22.9,12.8s-32,7-44.2,0s-22.4-12.8-22.7-12.8
			s-0.6-6.4-0.6-14.2s0-14.2,0-14.2"/>
	</g>
</symbol>
<symbol  id="base" viewBox="-251.5 -251.5 503 503">
	<polygon class="st12" points="250,-250 -250,-250 -250,250 250,250 	"/>
	<line class="st12" x1="-250" y1="250" x2="250" y2="-250"/>
	<line class="st12" x1="250" y1="250" x2="-250" y2="-250"/>
	<polygon class="st13" points="-173.2,99.2 0,199.2 173.2,99.2 173.2,-100.8 0,-200.8 -173.2,-100.8 	"/>
</symbol>
<g id="Layer_1_1_" class="st14">
</g>
<g id="_x5B_HBE_x5D__-_Bg" class="st14">
	<rect x="-2055.7" y="-3520.4" class="st15" width="2615.5" height="4079.2"/>
</g>
<g id="_x5B_HBE_x5D__-_Struct" class="st14">
	<g id="League_x5F_Bronze" class="st16">
	</g>
	
		<use xlink:href="#base"  width="503" height="503" id="XMLID_20_" x="-251.5" y="-251.5" transform="matrix(1 0 0 -1 256.5 252.194)" style="display:inline;overflow:visible;"/>
</g>
<g id="Bases">
	<g id="League_x5F_Diamond_x5F_Small">
		<g id="League_x5F_Diamond">
		</g>
	</g>
</g>
<g id="Compound">
	<g id="Rank_x5F_Copper_x5F_4_x5F_Small_1_">
		<g id="Rank_x5F_Copper_x5F_4_2_">
		</g>
	</g>
	<g id="Rank_x5F_Copper_x5F_4_x5F_Small_2_">
		<g id="Rank_x5F_Copper_x5F_4_3_">
		</g>
	</g>
	<g id="Rank_x5F_Copper_x5F_4_5_">
		<g id="League_x5F_Copper">
		</g>
	</g>
	<g id="Rank_x5F_Copper_x5F_4_x5F_Small_4_">
		<g id="Rank_x5F_Copper_x5F_4_6_">
		</g>
	</g>
	<g id="Rank_x5F_Copper_x5F_4_x5F_Small_3_">
		<g id="Rank_x5F_Copper_x5F_4_4_">
		</g>
	</g>
	<g id="Rank_x5F_Copper_x5F_4_x5F_Small">
		<g id="Rank_x5F_Copper_x5F_4">
		</g>
	</g>
	<g id="Position_x5F_1_x5F_Small">
		<g id="Position_x5F_1_1_">
		</g>
	</g>
	<g id="Rank_x5F_Copper_x5F_3">
	</g>
	<g id="Rank_x5F_Copper_x5F_2">
	</g>
	<g id="Rank_x5F_Copper_x5F_1">
	</g>
	<g id="Rank_x5F_Bronze_x5F_4">
	</g>
	<g id="Rank_x5F_Bronze_x5F_3">
	</g>
	<g id="Rank_x5F_Bronze_x5F_2">
	</g>
	<g id="Rank_x5F_Bronze_x5F_1">
	</g>
	<g id="Rank_x5F_Silver_x5F_4">
	</g>
	<g id="Rank_x5F_Silver_x5F_3">
	</g>
	<g id="Rank_x5F_Silver_x5F_2">
	</g>
	<g id="Rank_x5F_Silver_x5F_1">
	</g>
	<g id="Rank_x5F_Gold_x5F_4">
	</g>
	<g id="Rank_x5F_Gold_x5F_3">
	</g>
	<g id="Rank_x5F_Gold_x5F_2">
	</g>
	<g id="Rank_x5F_Gold_x5F_1">
	</g>
	<g id="Rank_x5F_Platinum_x5F_4">
	</g>
	<g id="Rank_x5F_Platinum_x5F_3">
	</g>
	<g id="Rank_x5F_Platinum_x5F_2">
	</g>
	<g id="Rank_x5F_Platinum_x5F_1">
		
			<use xlink:href="#League_x5F_Diamond_1_"  width="501" height="501" id="XMLID_60_" x="-250.5" y="-250.5" transform="matrix(1 0 0 -1 256.5 252.194)" style="overflow:visible;"/>
		<g id="Position_x5F_1">
			<g class="st17">
				<polygon class="st18" points="83.3,151.3 256.5,51.3 429.7,151.3 429.7,351.3 256.5,451.3 83.3,351.3 				"/>
				<polygon class="st18" points="114.5,333.3 256.5,251.3 398.5,333.3 398.5,333.3 256.5,415.3 				"/>
			</g>
			<rect x="6.5" y="0.5" class="st2" width="500" height="500"/>
			<g>
				<g>
					<polygon class="st19" points="324,412.3 324,214.1 256.5,214.1 189,214.1 189,412.3 256.5,451.3 					"/>
					<polygon points="330.1,390.4 330.1,142.6 256.5,142.6 182.9,142.6 182.9,390.4 256.5,432.9 					"/>
					<polygon class="st4" points="255.6,185.8 269.3,228.1 313.7,228.1 277.8,254.2 291.5,296.4 255.6,270.3 219.6,296.4 
						233.4,254.2 197.4,228.1 241.9,228.1 					"/>
				</g>
				<polygon class="st11" points="182.9,352.8 256.5,395.3 330.1,352.8 330.1,362.8 256.5,405.3 182.9,362.8 				"/>
				<polygon class="st11" points="182.9,332.8 256.5,375.3 330.1,332.8 330.1,342.8 256.5,385.3 182.9,342.8 				"/>
				<polygon class="st11" points="182.9,312.8 256.5,355.3 330.1,312.8 330.1,322.8 256.5,365.3 182.9,322.8 				"/>
				<polygon class="st11" points="295.5,342.8 256.5,320.3 217.5,342.8 217.5,332.8 256.5,310.3 295.5,332.8 				"/>
			</g>
		</g>
	</g>
</g>
</svg>
