<svg width="32" height="32" xmlns="http://www.w3.org/2000/svg"><defs><filter y="-11.5%" height="146.2%" filterUnits="objectBoundingBox" id="a"><feOffset dy="6" in="SourceAlpha" result="shadowOffsetOuter1"/><feColorMatrix values="0 0 0 0 0 0 0 0 0 0 0 0 0 0 0 0 0 0 0.35 0" in="shadowOffsetOuter1" result="shadowMatrixOuter1"/><feMerge><feMergeNode in="shadowMatrixOuter1"/><feMergeNode in="SourceGraphic"/></feMerge></filter><linearGradient x1="0%" y1="50%" y2="50%" id="b"><stop stop-color="#5FFFCC" offset="0%"/><stop stop-color="#CFFFF0" offset="100%"/></linearGradient></defs><g filter="url(#a)" transform="translate(1 1)" fill="none" fill-rule="evenodd"><path fill="#12AF7E" d="M7.759 0l-7.76 12.784 7.76 12.793H21.5l7.758-12.793L21.5 0z"/><path fill="#179E3B" d="M20.706 1.48l6.86 11.304z"/><path fill="#138131" d="M1.694 12.784L8.555 1.48z"/><path d="M8.555 1.48h12.15-12.15z" fill="#158E35"/><path fill="#1CFFB7" d="M18.484 19.466l2.222 4.63H8.556l2.221-4.63z"/><path fill="#28D6A5" d="M10.777 19.466l-2.221 4.63-6.861-11.313 5.225.001z"/><path fill="#AAFFE4" d="M22.34 12.785l5.227-.001-6.86 11.312-2.224-4.63z"/><path fill="#00B994" d="M6.92 12.785l-5.226-.001L8.554 1.48l2.223 4.63z"/><path fill="#28D6A5" d="M18.485 6.11l2.22-4.63 6.862 11.304h-5.226z"/><path fill="#28D6A5" d="M10.776 6.11l-2.22-4.63h12.15l-2.221 4.63z"/><path fill="url(#b)" d="M18.485 6.11l3.856 6.675-3.857 6.68h-7.707l-3.857-6.68 3.856-6.675z"/></g></svg>