<?xml version="1.0" encoding="UTF-8"?>
<svg width="35px" height="26px" viewBox="0 0 35 26" version="1.1" xmlns="http://www.w3.org/2000/svg" xmlns:xlink="http://www.w3.org/1999/xlink">
    <!-- Generator: Sketch 52.6 (67491) - http://www.bohemiancoding.com/sketch -->
    <title>icon-topbar-shop</title>
    <desc>Created with Sketch.</desc>
    <defs>
        <filter x="-13.3%" y="-53.4%" width="126.5%" height="213.7%" filterUnits="objectBoundingBox" id="filter-1">
            <feOffset dx="1" dy="2" in="SourceAlpha" result="shadowOffsetOuter1"></feOffset>
            <feColorMatrix values="0 0 0 0 0   0 0 0 0 0   0 0 0 0 0  0 0 0 0.2 0" type="matrix" in="shadowOffsetOuter1" result="shadowMatrixOuter1"></feColorMatrix>
            <feMerge>
                <feMergeNode in="shadowMatrixOuter1"></feMergeNode>
                <feMergeNode in="SourceGraphic"></feMergeNode>
            </feMerge>
        </filter>
    </defs>
    <g id="Content" stroke="none" stroke-width="1" fill="none" fill-rule="evenodd">
        <g id="Export" transform="translate(-650.000000, -456.000000)">
            <g id="icon-topbar-shop" transform="translate(650.000000, 456.000000)">
                <g id="Group-36">
                    <polygon id="Fill-1" fill="#DADADA" points="29.165449 26 35 25.732196 35 2.66967088 29 0"></polygon>
                    <polygon id="Fill-2" fill="#FFFFFF" points="5 26 30 26 30 0 5 0"></polygon>
                    <polygon id="Fill-2" fill="#FFFFFF" points="4.64285714 12.48 29.7142857 12.48 29.7142857 0 4.64285714 0"></polygon>
                    <g id="Group-35">
                        <path d="M19.2626055,22 L15.7373945,22 C15.3300151,22 15,21.3791349 15,20.6127226 L15,17.3882952 C15,16.621883 15.3300151,16 15.7373945,16 L19.2626055,16 C19.6699849,16 20,16.621883 20,17.3882952 L20,20.6127226 C20,21.3791349 19.6699849,22 19.2626055,22" id="Fill-5" fill="#232323"></path>
                        <path d="M25.5551298,22 L21.7879987,22 C21.3526627,22 21,21.3791349 21,20.6127226 L21,17.3882952 C21,16.621883 21.3526627,16 21.7879987,16 L25.5551298,16 C25.9904659,16 26.3431286,16.621883 26.3431286,17.3882952 L26.3431286,20.6127226 C26.3431286,21.3791349 25.9904659,22 25.5551298,22" id="Fill-5" fill="#232323"></path>
                        <path d="M12,26 L7,26 L7,17.5884759 C7,16.711115 7.63758389,16 8.42422351,16 L10.5757765,16 C11.3624161,16 12,16.711115 12,17.5884759 L12,26 Z" id="Fill-3" fill="#232323"></path>
                        <polygon id="Fill-7" fill="#AD2D2D" points="4.60486765 3.94576 29.4784286 3.94576 29.4784286 0.04992 4.60486765 0.04992"></polygon>
                        <polygon id="Fill-9" fill="#AD2D2D" points="29 6.13475836 35 7 35 2.54042751 29 4.61852778e-14"></polygon>
                        <g id="Group-27" filter="url(#filter-1)" transform="translate(0.000000, 2.080000)">
                            <polygon id="Fill-10" fill="#C93232" points="6.64285252 5.435768 1.1052895 5.435768 5.00886723 0.274248 10.5474408 0.274248"></polygon>
                            <polygon id="Stroke-11" stroke="#C93232" points="6.64285252 5.435768 1.1052895 5.435768 5.00886723 0.274248 10.5474408 0.274248"></polygon>
                            <polygon id="Fill-12" fill="#FFFFFF" points="11.6934536 5.435768 6.15589055 5.435768 10.0604788 0.274248 15.5980418 0.274248"></polygon>
                            <polygon id="Stroke-13" stroke="#FFFFFF" points="11.6934536 5.435768 6.15589055 5.435768 10.0604788 0.274248 15.5980418 0.274248"></polygon>
                            <polygon id="Fill-14" fill="#C93232" points="16.5406401 5.435768 11.0030771 5.435768 14.9076653 0.274248 20.4452284 0.274248"></polygon>
                            <polygon id="Stroke-15" stroke="#C93232" points="16.5406401 5.435768 11.0030771 5.435768 14.9076653 0.274248 20.4452284 0.274248"></polygon>
                            <g id="Group-18" transform="translate(-0.000000, 5.200000)">
                                <path d="M5.12608571,0.757744 C5.12608571,2.367664 4.09233992,3.672864 2.81607311,3.672864 C1.5398063,3.672864 0.50505,2.367664 0.50505,0.757744" id="Fill-16" fill="#AD2D2D"></path>
                                <path d="M5.12608571,0.757744 C5.12608571,2.367664 4.09233992,3.672864 2.81607311,3.672864 C1.5398063,3.672864 0.50505,2.367664 0.50505,0.757744" id="Stroke-17" stroke="#AD2D2D"></path>
                            </g>
                            <g id="Group-21" transform="translate(5.052521, 5.200000)">
                                <path d="M4.65741387,0.757744 C4.65741387,2.367664 3.73583403,3.672864 2.59901681,3.672864 C1.46321008,3.672864 0.541630252,2.367664 0.541630252,0.757744" id="Fill-19" fill="#FFFFFF"></path>
                                <path d="M4.65741387,0.757744 C4.65741387,2.367664 3.73583403,3.672864 2.59901681,3.672864 C1.46321008,3.672864 0.541630252,2.367664 0.541630252,0.757744" id="Stroke-20" stroke="#FFFFFF"></path>
                            </g>
                            <polygon id="Fill-22" fill="#FFFFFF" points="21.9612878 5.435768 16.4237248 5.435768 20.328313 0.274248 25.8658761 0.274248"></polygon>
                            <polygon id="Stroke-23" stroke="#FFFFFF" points="21.9612878 5.435768 16.4237248 5.435768 20.328313 0.274248 25.8658761 0.274248"></polygon>
                            <g id="Group-26" transform="translate(15.157563, 5.200000)">
                                <path d="M4.93570672,0.757744 C4.93570672,2.367664 4.01513739,3.672864 2.87832017,3.672864 C1.74251345,3.672864 0.820933613,2.367664 0.820933613,0.757744" id="Fill-24" fill="#FFFFFF"></path>
                                <path d="M4.93570672,0.757744 C4.93570672,2.367664 4.01513739,3.672864 2.87832017,3.672864 C1.74251345,3.672864 0.820933613,2.367664 0.820933613,0.757744" id="Stroke-25" stroke="#FFFFFF"></path>
                            </g>
                            <g id="Group-29" transform="translate(10.105042, 5.200000)">
                                <path d="M4.66822626,0.757744 C4.66822626,2.367664 3.7395729,3.672864 2.59265063,3.672864 C1.44673887,3.672864 0.517075,2.367664 0.517075,0.757744" id="Fill-27" fill="#AD2D2D"></path>
                                <path d="M4.66822626,0.757744 C4.66822626,2.367664 3.7395729,3.672864 2.59265063,3.672864 C1.44673887,3.672864 0.517075,2.367664 0.517075,0.757744" id="Stroke-28" stroke="#AD2D2D"></path>
                            </g>
                            <polygon id="Fill-30" fill="#C93232" points="25.506945 5.435768 21.660966 5.435768 25.5665647 0.274248 29.4115332 0.274248"></polygon>
                            <polygon id="Stroke-31" stroke="#C93232" fill="#C93232" points="25.8259473 5.435768 21.660966 5.435768 25.5665647 0.274248 29.4115332 0.274248 29.4115332 3.22582156"></polygon>
                            <g id="Group-34" transform="translate(21.220588, 5.200000)">
                                <path d="M4.18267899,0.757744 C4.18267899,2.367664 3.25301513,3.672864 2.10609286,3.672864 C0.960181092,3.672864 0.0305172269,2.367664 0.0305172269,0.757744" id="Fill-32" fill="#AD2D2D"></path>
                                <path d="M4.18267899,0.757744 C4.18267899,2.367664 3.25301513,3.672864 2.10609286,3.672864 C0.960181092,3.672864 0.0305172269,2.367664 0.0305172269,0.757744" id="Stroke-33" stroke="#AD2D2D"></path>
                            </g>
                        </g>
                    </g>
                </g>
            </g>
        </g>
    </g>
</svg>