<?xml version="1.0" encoding="utf-8"?>
<!-- Generator: Adobe Illustrator 23.0.1, SVG Export Plug-In . SVG Version: 6.00 Build 0)  -->
<svg version="1.1" id="Layer_1" xmlns="http://www.w3.org/2000/svg" xmlns:xlink="http://www.w3.org/1999/xlink" x="0px" y="0px"
	 viewBox="0 0 33.88 33.99" style="enable-background:new 0 0 33.88 33.99;" xml:space="preserve">
<style type="text/css">
	.st0{fill:url(#SVGID_1_);}
	.st1{fill:url(#SVGID_2_);}
	.st2{fill:url(#SVGID_3_);}
	.st3{fill:url(#SVGID_4_);}
	.st4{fill:url(#SVGID_5_);}
	.st5{fill:url(#SVGID_6_);}
	.st6{fill:url(#SVGID_7_);}
	.st7{fill:url(#SVGID_8_);}
</style>
<g>
	<linearGradient id="SVGID_1_" gradientUnits="userSpaceOnUse" x1="8.3106" y1="30.7167" x2="29.3708" y2="30.7167">
		<stop  offset="0" style="stop-color:#FFED51"/>
		<stop  offset="0.5052" style="stop-color:#FFF4A4"/>
		<stop  offset="1" style="stop-color:#FFDC40"/>
	</linearGradient>
	<path class="st0" d="M29.37,30.75l-0.27-3.31L8.31,29.46c0,0,0.31,3.88,0.32,3.95c0.06,0.68,4.68,0.78,10.33,0.23
		c5.59-0.55,10.08-1.54,10.12-2.22C29.27,31.27,29.39,31.02,29.37,30.75z"/>
	
		<linearGradient id="SVGID_2_" gradientUnits="userSpaceOnUse" x1="-640.0248" y1="-3572.0701" x2="-616.2091" y2="-3572.0701" gradientTransform="matrix(0.8739 -0.0793 0.0328 0.3614 684.6716 1269.724)">
		<stop  offset="0" style="stop-color:#A2931A"/>
		<stop  offset="0.5052" style="stop-color:#AA9F53"/>
		<stop  offset="1" style="stop-color:#8A7414"/>
	</linearGradient>
	<path class="st1" d="M8.29,29.49c0.06,0.68,4.76,0.78,10.5,0.21c5.74-0.56,10.35-1.57,10.3-2.26c-0.06-0.68-4.76-0.78-10.5-0.21
		C12.85,27.8,8.24,28.81,8.29,29.49z"/>
	
		<linearGradient id="SVGID_3_" gradientUnits="userSpaceOnUse" x1="-353.4313" y1="-484.5201" x2="-338.6004" y2="-484.5201" gradientTransform="matrix(0.9144 -0.082 0.0893 0.996 377.9131 477.4172)">
		<stop  offset="0" style="stop-color:#C9B720"/>
		<stop  offset="0.5052" style="stop-color:#D1C466"/>
		<stop  offset="1" style="stop-color:#B1951A"/>
	</linearGradient>
	<path class="st2" d="M25.47,27.64c-2.7-0.15-5.19-4.55-5.7-10.19l-0.02-0.03l-3.86,0.38c0.44,5.68-1.3,10.52-3.95,11.17l-0.01,0.03
		c0,0,2.02,0.3,6.91-0.22s6.64-1.1,6.64-1.1L25.47,27.64z"/>
	<g>
		
			<linearGradient id="SVGID_4_" gradientUnits="userSpaceOnUse" x1="137.1889" y1="-493.8914" x2="150.2864" y2="-493.8914" gradientTransform="matrix(0.996 -0.0893 0.0893 0.996 -92.0895 519.5492)">
			<stop  offset="0" style="stop-color:#C9B720"/>
			<stop  offset="0.5052" style="stop-color:#D1C466"/>
			<stop  offset="1" style="stop-color:#B1951A"/>
		</linearGradient>
		<path class="st3" d="M12.25,20.67C6.06,21.23,0.56,16.61,0.01,10.37c-0.06-0.71,0.46-1.34,1.17-1.4l10.47-0.94
			c0.71-0.06,1.34,0.46,1.4,1.17l0.9,10.01c0.06,0.68-0.42,1.3-1.1,1.39C12.64,20.63,12.44,20.66,12.25,20.67z M2.79,11.42
			c0.94,3.91,4.44,6.73,8.47,6.72l-0.66-7.42L2.79,11.42z"/>
	</g>
	<g>
		
			<linearGradient id="SVGID_5_" gradientUnits="userSpaceOnUse" x1="158.0549" y1="-493.8914" x2="171.1525" y2="-493.8914" gradientTransform="matrix(0.996 -0.0893 0.0893 0.996 -92.0895 519.5492)">
			<stop  offset="0" style="stop-color:#C9B720"/>
			<stop  offset="0.5052" style="stop-color:#D1C466"/>
			<stop  offset="1" style="stop-color:#B1951A"/>
		</linearGradient>
		<path class="st4" d="M23.02,19.69c-0.69,0.02-1.27-0.49-1.33-1.18l-0.9-10.01c-0.06-0.71,0.46-1.34,1.17-1.4l10.47-0.94
			c0.71-0.06,1.34,0.46,1.4,1.17c0.56,6.24-4.02,11.76-10.21,12.32C23.42,19.67,23.22,19.69,23.02,19.69z M23.48,9.56l0.66,7.42
			c3.96-0.71,6.91-4.1,7.14-8.12L23.48,9.56z"/>
	</g>
	
		<linearGradient id="SVGID_6_" gradientUnits="userSpaceOnUse" x1="143.0151" y1="-493.5295" x2="165.3262" y2="-493.5295" gradientTransform="matrix(0.996 -0.0893 0.0893 0.996 -92.0895 519.5492)">
		<stop  offset="0" style="stop-color:#FFED51"/>
		<stop  offset="0.5052" style="stop-color:#FFF4A4"/>
		<stop  offset="1" style="stop-color:#FFDC40"/>
	</linearGradient>
	<path class="st5" d="M5.69,8.56C6.35,15.92,11.86,21.44,18,20.89s10.58-6.96,9.92-14.32L5.69,8.56z"/>
	<linearGradient id="SVGID_7_" gradientUnits="userSpaceOnUse" x1="3.8928" y1="4.5423" x2="29.2579" y2="4.5423">
		<stop  offset="0" style="stop-color:#C9B720"/>
		<stop  offset="0.5052" style="stop-color:#D1C466"/>
		<stop  offset="1" style="stop-color:#B1951A"/>
	</linearGradient>
	<path class="st6" d="M28.73,1.16c-0.01-0.12-0.04-0.44-0.04-0.5c-0.07-0.76-5.67-0.87-12.52-0.25C9.32,1.02,3.82,2.14,3.89,2.9
		c0,0.05,0.52,5.55,0.53,5.6c0.06,0.71,5.68,0.78,12.54,0.16c6.86-0.62,12.37-1.7,12.3-2.41C29.25,6.19,28.73,1.16,28.73,1.16z"/>
	
		<linearGradient id="SVGID_8_" gradientUnits="userSpaceOnUse" x1="144.0415" y1="-3645.1089" x2="165.4064" y2="-3645.1089" gradientTransform="matrix(0.9959 -0.0903 0.0328 0.3614 -18.3301 1333.4874)">
		<stop  offset="0" style="stop-color:#837715"/>
		<stop  offset="0.5052" style="stop-color:#8B8244"/>
		<stop  offset="1" style="stop-color:#6B5A10"/>
	</linearGradient>
	<path class="st7" d="M5.63,3.03c0.05,0.56,4.86,0.59,10.73,0.06s10.6-1.42,10.55-1.99c-0.05-0.56-4.86-0.59-10.73-0.06
		S5.58,2.47,5.63,3.03z"/>
</g>
</svg>
